{
  "accessors": [
    {
      "bufferView": 2,
      "componentType": 5126,
      "count": 25340,
      "max": [
        263.6370849609375,
        355.55859375,
        452.0943603515625
      ],
      "min": [
        -263.6370849609375,
        -220.79095458984375,
        -203.98085021972656
      ],
      "type": "VEC3"
    },
    {
      "bufferView": 2,
      "byteOffset": 304080,
      "componentType": 5126,
      "count": 25340,
      "max": [
        0.9999886155128479,
        0.9999955296516418,
        1.0
      ],
      "min": [
        -0.9999886155128479,
        -1.0,
        -1.0
      ],
      "type": "VEC3"
    },
    {
      "bufferView": 1,
      "componentType": 5126,
      "count": 25340,
      "max": [
        0.9787025451660156,
        0.9806786775588989
      ],
      "min": [
        0.025489144027233124,
        0.02608954906463623
      ],
      "type": "VEC2"
    },
    {
      "bufferView": 0,
      "componentType": 5125,
      "count": 144654,
      "type": "SCALAR"
    }
  ],
  "asset": {
    "extras": {
      "author": "lionarts3d (https://sketchfab.com/lionarts3d)",
      "license": "CC-BY-4.0 (http://creativecommons.org/licenses/by/4.0/)",
      "source": "https://sketchfab.com/3d-models/space-helmet-5ac8946113184825ab7fbea4f8849b5b",
      "title": "Space helmet"
    },
    "generator": "Sketchfab-12.67.0",
    "version": "2.0"
  },
  "bufferViews": [
    {
      "buffer": 0,
      "byteLength": 578616,
      "name": "floatBufferViews",
      "target": 34963
    },
    {
      "buffer": 0,
      "byteLength": 202720,
      "byteOffset": 578616,
      "byteStride": 8,
      "name": "floatBufferViews",
      "target": 34962
    },
    {
      "buffer": 0,
      "byteLength": 608160,
      "byteOffset": 781336,
      "byteStride": 12,
      "name": "floatBufferViews",
      "target": 34962
    }
  ],
  "buffers": [
    {
      "byteLength": 1389496,
      "uri": "scene.bin"
    }
  ],
  "images": [
    {
      "uri": "textures/polySurface53_baseColor.png"
    }
  ],
  "materials": [
    {
      "doubleSided": true,
      "name": "polySurface53",
      "pbrMetallicRoughness": {
        "baseColorTexture": {
          "index": 0
        },
        "metallicFactor": 0.8695876568983073,
        "roughnessFactor": 0.232304788275688
      }
    }
  ],
  "meshes": [
    {
      "name": "polySurface53_polySurface53_0",
      "primitives": [
        {
          "attributes": {
            "NORMAL": 1,
            "POSITION": 0,
            "TEXCOORD_0": 2
          },
          "indices": 3,
          "material": 0,
          "mode": 4
        }
      ]
    }
  ],
  "nodes": [
    {
      "children": [
        1
      ],
      "matrix": [
        1.0,
        0.0,
        0.0,
        0.0,
        0.0,
        2.220446049250313e-16,
        -1.0,
        0.0,
        0.0,
        1.0,
        2.220446049250313e-16,
        0.0,
        0.0,
        0.0,
        0.0,
        1.0
      ],
      "name": "Sketchfab_model"
    },
    {
      "children": [
        2
      ],
      "matrix": [
        0.009999999776482582,
        0.0,
        0.0,
        0.0,
        0.0,
        0.0,
        0.009999999776482582,
        0.0,
        0.0,
        -0.009999999776482582,
        0.0,
        0.0,
        0.0,
        0.0,
        0.0,
        1.0
      ],
      "name": "8b68cfd1b15c4912b3429816fd78646a.fbx"
    },
    {
      "children": [
        3
      ],
      "name": "RootNode"
    },
    {
      "children": [
        4
      ],
      "name": "polySurface53"
    },
    {
      "mesh": 0,
      "name": "polySurface53_polySurface53_0"
    }
  ],
  "samplers": [
    {
      "magFilter": 9729,
      "minFilter": 9987,
      "wrapS": 10497,
      "wrapT": 10497
    }
  ],
  "scene": 0,
  "scenes": [
    {
      "name": "Sketchfab_Scene",
      "nodes": [
        0
      ]
    }
  ],
  "textures": [
    {
      "sampler": 0,
      "source": 0
    }
  ]
}
